<svg width="251" height="127" viewBox="0 0 251 127" fill="none" xmlns="http://www.w3.org/2000/svg">
<mask id="path-1-outside-1_3832_8666" maskUnits="userSpaceOnUse" x="0" y="0" width="251" height="127" fill="black">
<rect fill="white" width="251" height="127"/>
<path d="M125.5 2C163.156 2.00001 195.379 21.7417 208.583 49.6943C230.905 49.6945 249 67.716 249 89.9473V114.959C243.432 114.959 238.918 119.455 238.918 125H12.082C12.082 119.628 7.84549 115.24 2.51855 114.972L2 114.959V89.9482C2 67.7166 20.096 49.6943 42.418 49.6943C55.6219 21.7417 87.8444 2 125.5 2Z"/>
</mask>
<path d="M125.5 2C163.156 2.00001 195.379 21.7417 208.583 49.6943C230.905 49.6945 249 67.716 249 89.9473V114.959C243.432 114.959 238.918 119.455 238.918 125H12.082C12.082 119.628 7.84549 115.24 2.51855 114.972L2 114.959V89.9482C2 67.7166 20.096 49.6943 42.418 49.6943C55.6219 21.7417 87.8444 2 125.5 2Z" fill="#4D4543"/>
<path d="M125.5 2V0V2ZM208.583 49.6943L206.775 50.5486L207.316 51.6943L208.583 51.6943L208.583 49.6943ZM249 89.9473H251V89.9473L249 89.9473ZM249 114.959V116.959H251V114.959H249ZM238.918 125V127H240.918V125H238.918ZM12.082 125H10.082V127H12.082V125ZM2.51855 114.972L2.61935 112.974L2.59344 112.973L2.5675 112.972L2.51855 114.972ZM2 114.959H0V116.911L1.95105 116.958L2 114.959ZM42.418 49.6943V51.6943H43.6851L44.2264 50.5486L42.418 49.6943ZM125.5 2V4C162.498 4.00001 193.947 23.3941 206.775 50.5486L208.583 49.6943L210.391 48.8401C196.81 20.0893 163.814 1.26362e-05 125.5 0V2ZM208.583 49.6943L208.583 51.6943C229.808 51.6945 247 68.8282 247 89.9473L249 89.9473L251 89.9473C251 66.6038 232.002 47.6945 208.583 47.6943L208.583 49.6943ZM249 89.9473H247V114.959H249H251V89.9473H249ZM249 114.959V112.959C242.335 112.959 236.918 118.342 236.918 125H238.918H240.918C240.918 120.567 244.529 116.959 249 116.959V114.959ZM238.918 125V123H12.082V125V127H238.918V125ZM12.082 125H14.082C14.082 118.55 8.99783 113.296 2.61935 112.974L2.51855 114.972L2.41776 116.969C6.69315 117.185 10.082 120.706 10.082 125H12.082ZM2.51855 114.972L2.5675 112.972L2.04895 112.96L2 114.959L1.95105 116.958L2.46961 116.971L2.51855 114.972ZM2 114.959H4V89.9482H2H0V114.959H2ZM2 89.9482H4C4 68.8289 21.1929 51.6943 42.418 51.6943V49.6943V47.6943C18.9991 47.6943 0 66.6044 0 89.9482H2ZM42.418 49.6943L44.2264 50.5486C57.0533 23.3941 88.5027 4 125.5 4V2V0C87.186 0 54.1905 20.0893 40.6096 48.8401L42.418 49.6943Z" fill="#BEA57C" mask="url(#path-1-outside-1_3832_8666)"/>
</svg>
